<svg width="153" height="153" viewBox="0 0 153 153" fill="none" xmlns="http://www.w3.org/2000/svg">
<g filter="url(#filter0_d_576_11639)">
<circle cx="76.5" cy="76.5" r="36" fill="url(#paint0_linear_576_11639)" fill-opacity="0.4" stroke="url(#paint1_linear_576_11639)"/>
<path d="M77.4053 81.2572C78.7672 81.2572 80.0734 80.7161 81.0364 79.7531C81.9994 78.7901 82.5404 77.4839 82.5404 76.122V68.4193C82.5404 67.0574 81.9994 65.7513 81.0364 64.7882C80.0734 63.8252 78.7672 63.2842 77.4053 63.2842C76.0434 63.2842 74.7372 63.8252 73.7742 64.7882C72.8112 65.7513 72.2702 67.0574 72.2702 68.4193V76.122C72.2702 77.4839 72.8112 78.7901 73.7742 79.7531C74.7372 80.7161 76.0434 81.2572 77.4053 81.2572ZM74.8377 68.4193C74.8377 67.7384 75.1083 67.0853 75.5898 66.6038C76.0713 66.1223 76.7243 65.8517 77.4053 65.8517C78.0863 65.8517 78.7393 66.1223 79.2209 66.6038C79.7024 67.0853 79.9729 67.7384 79.9729 68.4193V76.122C79.9729 76.803 79.7024 77.456 79.2209 77.9376C78.7393 78.4191 78.0863 78.6896 77.4053 78.6896C76.7243 78.6896 76.0713 78.4191 75.5898 77.9376C75.1083 77.456 74.8377 76.803 74.8377 76.122V68.4193ZM87.6756 76.122C87.6756 75.7815 87.5403 75.455 87.2996 75.2142C87.0588 74.9735 86.7323 74.8382 86.3918 74.8382C86.0513 74.8382 85.7248 74.9735 85.484 75.2142C85.2433 75.455 85.108 75.7815 85.108 76.122C85.108 78.1649 84.2965 80.1241 82.8519 81.5687C81.4074 83.0132 79.4482 83.8247 77.4053 83.8247C75.3624 83.8247 73.4032 83.0132 71.9587 81.5687C70.5141 80.1241 69.7026 78.1649 69.7026 76.122C69.7026 75.7815 69.5674 75.455 69.3266 75.2142C69.0858 74.9735 68.7593 74.8382 68.4188 74.8382C68.0783 74.8382 67.7518 74.9735 67.5111 75.2142C67.2703 75.455 67.135 75.7815 67.135 76.122C67.1373 78.6219 68.0513 81.0352 69.7057 82.9093C71.3601 84.7835 73.6412 85.9899 76.1215 86.3024V88.9599H73.554C73.2135 88.9599 72.8869 89.0951 72.6462 89.3359C72.4054 89.5766 72.2702 89.9032 72.2702 90.2436C72.2702 90.5841 72.4054 90.9107 72.6462 91.1514C72.8869 91.3922 73.2135 91.5274 73.554 91.5274H81.2567C81.5971 91.5274 81.9237 91.3922 82.1644 91.1514C82.4052 90.9107 82.5404 90.5841 82.5404 90.2436C82.5404 89.9032 82.4052 89.5766 82.1644 89.3359C81.9237 89.0951 81.5971 88.9599 81.2567 88.9599H78.6891V86.3024C81.1694 85.9899 83.4506 84.7835 85.1049 82.9093C86.7593 81.0352 87.6733 78.6219 87.6756 76.122Z" fill="#D03232"/>
</g>
<defs>
<filter id="filter0_d_576_11639" x="0" y="0" width="153" height="153" filterUnits="userSpaceOnUse" color-interpolation-filters="sRGB">
<feFlood flood-opacity="0" result="BackgroundImageFix"/>
<feColorMatrix in="SourceAlpha" type="matrix" values="0 0 0 0 0 0 0 0 0 0 0 0 0 0 0 0 0 0 127 0" result="hardAlpha"/>
<feOffset/>
<feGaussianBlur stdDeviation="20"/>
<feComposite in2="hardAlpha" operator="out"/>
<feColorMatrix type="matrix" values="0 0 0 0 1 0 0 0 0 1 0 0 0 0 1 0 0 0 0.25 0"/>
<feBlend mode="normal" in2="BackgroundImageFix" result="effect1_dropShadow_576_11639"/>
<feBlend mode="normal" in="SourceGraphic" in2="effect1_dropShadow_576_11639" result="shape"/>
</filter>
<linearGradient id="paint0_linear_576_11639" x1="49.8382" y1="40" x2="103.162" y2="113" gradientUnits="userSpaceOnUse">
<stop stop-color="#F1F1F1"/>
<stop offset="1" stop-color="#3D3D3D"/>
</linearGradient>
<linearGradient id="paint1_linear_576_11639" x1="46.7747" y1="40" x2="106.225" y2="113" gradientUnits="userSpaceOnUse">
<stop stop-color="#FF8A00"/>
<stop offset="1" stop-color="#1712E1"/>
</linearGradient>
</defs>
</svg>
