<svg width="134" height="134" viewBox="0 0 134 134" fill="none" xmlns="http://www.w3.org/2000/svg">
<g filter="url(#filter0_d_576_11649)">
<circle cx="67" cy="67" r="26.5" fill="url(#paint0_linear_576_11649)" fill-opacity="0.4" stroke="url(#paint1_linear_576_11649)"/>
<g clip-path="url(#clip0_576_11649)">
<path d="M74.5 60.3333H71.9166C71.7232 59.3928 71.2115 58.5478 70.4677 57.9406C69.7239 57.3334 68.7935 57.0012 67.8333 57H66.1666C65.2065 57.0012 64.2761 57.3334 63.5323 57.9406C62.7884 58.5478 62.2767 59.3928 62.0833 60.3333H59.5C59.2789 60.3333 59.067 60.4211 58.9107 60.5774C58.7544 60.7337 58.6666 60.9457 58.6666 61.1667C58.6666 61.3877 58.7544 61.5996 58.9107 61.7559C59.067 61.9122 59.2789 62 59.5 62H60.3333V72.8333C60.3346 73.938 60.774 74.997 61.5551 75.7782C62.3363 76.5593 63.3953 76.9987 64.5 77H69.5C70.6046 76.9987 71.6637 76.5593 72.4448 75.7782C73.2259 74.997 73.6653 73.938 73.6666 72.8333V62H74.5C74.721 62 74.9329 61.9122 75.0892 61.7559C75.2455 61.5996 75.3333 61.3877 75.3333 61.1667C75.3333 60.9457 75.2455 60.7337 75.0892 60.5774C74.9329 60.4211 74.721 60.3333 74.5 60.3333ZM66.1666 58.6667H67.8333C68.3502 58.6673 68.8542 58.8278 69.2763 59.1262C69.6984 59.4246 70.0178 59.8462 70.1908 60.3333H63.8091C63.9821 59.8462 64.3015 59.4246 64.7236 59.1262C65.1457 58.8278 65.6497 58.6673 66.1666 58.6667ZM72 72.8333C72 73.4964 71.7366 74.1323 71.2677 74.6011C70.7989 75.0699 70.163 75.3333 69.5 75.3333H64.5C63.8369 75.3333 63.201 75.0699 62.7322 74.6011C62.2634 74.1323 62 73.4964 62 72.8333V62H72V72.8333Z" fill="#C9C9C9"/>
<path d="M65.3334 71.9997C65.5544 71.9997 65.7663 71.9119 65.9226 71.7556C66.0789 71.5993 66.1667 71.3873 66.1667 71.1663V66.1663C66.1667 65.9453 66.0789 65.7334 65.9226 65.5771C65.7663 65.4208 65.5544 65.333 65.3334 65.333C65.1123 65.333 64.9004 65.4208 64.7441 65.5771C64.5878 65.7334 64.5 65.9453 64.5 66.1663V71.1663C64.5 71.3873 64.5878 71.5993 64.7441 71.7556C64.9004 71.9119 65.1123 71.9997 65.3334 71.9997Z" fill="#C9C9C9"/>
<path d="M68.6666 71.9997C68.8876 71.9997 69.0996 71.9119 69.2558 71.7556C69.4121 71.5993 69.4999 71.3873 69.4999 71.1663V66.1663C69.4999 65.9453 69.4121 65.7334 69.2558 65.5771C69.0996 65.4208 68.8876 65.333 68.6666 65.333C68.4456 65.333 68.2336 65.4208 68.0773 65.5771C67.921 65.7334 67.8333 65.9453 67.8333 66.1663V71.1663C67.8333 71.3873 67.921 71.5993 68.0773 71.7556C68.2336 71.9119 68.4456 71.9997 68.6666 71.9997Z" fill="#C9C9C9"/>
</g>
</g>
<defs>
<filter id="filter0_d_576_11649" x="0" y="0" width="134" height="134" filterUnits="userSpaceOnUse" color-interpolation-filters="sRGB">
<feFlood flood-opacity="0" result="BackgroundImageFix"/>
<feColorMatrix in="SourceAlpha" type="matrix" values="0 0 0 0 0 0 0 0 0 0 0 0 0 0 0 0 0 0 127 0" result="hardAlpha"/>
<feOffset/>
<feGaussianBlur stdDeviation="20"/>
<feComposite in2="hardAlpha" operator="out"/>
<feColorMatrix type="matrix" values="0 0 0 0 1 0 0 0 0 1 0 0 0 0 1 0 0 0 0.25 0"/>
<feBlend mode="normal" in2="BackgroundImageFix" result="effect1_dropShadow_576_11649"/>
<feBlend mode="normal" in="SourceGraphic" in2="effect1_dropShadow_576_11649" result="shape"/>
</filter>
<linearGradient id="paint0_linear_576_11649" x1="47.2776" y1="40" x2="86.7224" y2="94" gradientUnits="userSpaceOnUse">
<stop stop-color="#F1F1F1"/>
<stop offset="1" stop-color="#3D3D3D"/>
</linearGradient>
<linearGradient id="paint1_linear_576_11649" x1="45.0114" y1="40" x2="88.9886" y2="94" gradientUnits="userSpaceOnUse">
<stop stop-color="#FF8A00"/>
<stop offset="1" stop-color="#1712E1"/>
</linearGradient>
<clipPath id="clip0_576_11649">
<rect width="20" height="20" fill="white" transform="translate(57 57)"/>
</clipPath>
</defs>
</svg>
