<svg width="25" height="24" viewBox="0 0 25 24" fill="none" xmlns="http://www.w3.org/2000/svg"><path d="M24.5 16.0006V21.0006C24.5 21.7963 24.1839 22.5593 23.6213 23.1219C23.0587 23.6846 22.2956 24.0006 21.5 24.0006H16.5C15.0971 23.9992 13.7192 23.6289 12.5047 22.9268C11.2901 22.2247 10.2815 21.2156 9.58 20.0006C10.3339 19.9952 11.0852 19.9121 11.822 19.7526C12.3832 20.4543 13.095 21.0206 13.9048 21.4098C14.7146 21.7989 15.6016 22.0009 16.5 22.0006H21.5C21.7652 22.0006 22.0196 21.8953 22.2071 21.7077C22.3946 21.5202 22.5 21.2658 22.5 21.0006V16.0006C22.4998 15.1019 22.2972 14.2147 21.9074 13.4049C21.5175 12.595 20.9504 11.8834 20.248 11.3226C20.4088 10.5859 20.4933 9.83463 20.5 9.08062C21.715 9.78207 22.7241 10.7907 23.4262 12.0053C24.1282 13.2199 24.4986 14.5977 24.5 16.0006ZM18.477 9.65162C18.5705 8.36326 18.3856 7.06986 17.9348 5.85932C17.4841 4.64877 16.778 3.54945 15.8646 2.63604C14.9512 1.72263 13.8518 1.01655 12.6413 0.565779C11.4308 0.115003 10.1374 -0.0699044 8.849 0.0236213C6.56592 0.284354 4.45693 1.3708 2.91918 3.07836C1.38143 4.78593 0.521027 6.99679 0.5 9.29462L0.5 14.3346C0.5 16.8666 2.007 18.0006 3.5 18.0006H9.2C11.4988 17.9808 13.711 17.121 15.4198 15.5832C17.1286 14.0453 18.2159 11.9356 18.477 9.65162ZM14.45 4.05162C15.1599 4.76312 15.7088 5.61882 16.0593 6.56081C16.4099 7.5028 16.554 8.5091 16.482 9.51162C16.2686 11.2953 15.4105 12.9394 14.0693 14.1346C12.7282 15.3297 10.9964 15.9933 9.2 16.0006H3.5C2.572 16.0006 2.5 14.7256 2.5 14.3346V9.29462C2.50834 7.499 3.17265 5.76833 4.36792 4.4283C5.56319 3.08827 7.20699 2.23129 8.99 2.01862C9.156 2.00662 9.322 2.00062 9.488 2.00062C10.4093 1.99976 11.3217 2.18046 12.1731 2.53238C13.0245 2.8843 13.7982 3.40055 14.45 4.05162Z" fill="white"/></svg>
