<svg width="26" height="26" viewBox="0 0 26 26" fill="none" xmlns="http://www.w3.org/2000/svg">
<path d="M16.4 8.9875L11.0375 14.3625L8.97501 12.3C8.86295 12.1691 8.72505 12.0629 8.56997 11.9878C8.41489 11.9128 8.24597 11.8707 8.07382 11.864C7.90167 11.8574 7.73001 11.8864 7.5696 11.9492C7.40919 12.012 7.26351 12.1074 7.14169 12.2292C7.01987 12.351 6.92455 12.4967 6.86171 12.6571C6.79887 12.8175 6.76986 12.9892 6.77651 13.1613C6.78316 13.3335 6.82532 13.5024 6.90035 13.6575C6.97538 13.8125 7.08165 13.9504 7.21251 14.0625L10.15 17.0125C10.2668 17.1284 10.4053 17.22 10.5576 17.2822C10.7099 17.3444 10.873 17.376 11.0375 17.375C11.3654 17.3736 11.6797 17.2434 11.9125 17.0125L18.1625 10.7625C18.2797 10.6463 18.3727 10.508 18.4361 10.3557C18.4996 10.2034 18.5323 10.04 18.5323 9.875C18.5323 9.70998 18.4996 9.5466 18.4361 9.39428C18.3727 9.24195 18.2797 9.1037 18.1625 8.9875C17.9283 8.75469 17.6115 8.62401 17.2813 8.62401C16.951 8.62401 16.6342 8.75469 16.4 8.9875ZM13 0.5C10.5277 0.5 8.11099 1.23311 6.05538 2.60663C3.99976 3.98015 2.39761 5.93238 1.45151 8.21646C0.505416 10.5005 0.257874 13.0139 0.74019 15.4386C1.2225 17.8634 2.41301 20.0907 4.16117 21.8388C5.90933 23.587 8.13661 24.7775 10.5614 25.2598C12.9861 25.7421 15.4995 25.4946 17.7836 24.5485C20.0676 23.6024 22.0199 22.0002 23.3934 19.9446C24.7669 17.889 25.5 15.4723 25.5 13C25.5 11.3585 25.1767 9.73303 24.5485 8.21646C23.9203 6.69989 22.9996 5.3219 21.8388 4.16117C20.6781 3.00043 19.3001 2.07969 17.7836 1.45151C16.267 0.823322 14.6415 0.5 13 0.5ZM13 23C11.0222 23 9.08879 22.4135 7.4443 21.3147C5.79981 20.2159 4.51809 18.6541 3.76121 16.8268C3.00433 14.9996 2.8063 12.9889 3.19215 11.0491C3.57801 9.10929 4.53041 7.32746 5.92894 5.92893C7.32746 4.53041 9.10929 3.578 11.0491 3.19215C12.9889 2.8063 14.9996 3.00433 16.8268 3.7612C18.6541 4.51808 20.2159 5.79981 21.3147 7.4443C22.4135 9.08879 23 11.0222 23 13C23 15.6522 21.9464 18.1957 20.0711 20.0711C18.1957 21.9464 15.6522 23 13 23Z" fill="#459C00"/>
</svg>
