<svg width="14" height="14" viewBox="0 0 14 14" fill="none" xmlns="http://www.w3.org/2000/svg"><path d="M13.3872 5.59905C13.2778 5.48969 13.1295 5.42826 12.9748 5.42826C12.8201 5.42826 12.6718 5.48969 12.5624 5.59905L6.20871 11.9801C5.93787 12.251 5.61634 12.4659 5.26246 12.6125C4.90858 12.7591 4.52929 12.8346 4.14625 12.8346C3.37265 12.8347 2.63072 12.5274 2.08367 11.9804C1.53661 11.4334 1.22925 10.6916 1.2292 9.91796C1.22914 9.14437 1.5364 8.40244 2.08337 7.85538L8.23696 1.67672C8.56601 1.3529 9.00969 1.17223 9.47134 1.17406C9.933 1.17588 10.3752 1.36006 10.7017 1.68646C11.0282 2.01287 11.2125 2.45506 11.2144 2.91671C11.2163 3.37837 11.0358 3.82209 10.712 4.15122L4.55846 10.3299C4.44748 10.4362 4.29973 10.4956 4.14604 10.4956C3.99235 10.4956 3.8446 10.4362 3.73362 10.3299C3.62427 10.2205 3.56283 10.0721 3.56283 9.91747C3.56283 9.76279 3.62427 9.61444 3.73362 9.50505L9.21229 4.0013C9.31855 3.89128 9.37735 3.74393 9.37602 3.59098C9.37469 3.43803 9.31334 3.29173 9.20519 3.18357C9.09703 3.07542 8.95072 3.01407 8.79778 3.01274C8.64483 3.01141 8.49748 3.07021 8.38746 3.17647L2.90879 8.68022C2.74626 8.84272 2.61733 9.03565 2.52936 9.24799C2.4414 9.46033 2.39612 9.68792 2.39612 9.91776C2.39612 10.1476 2.4414 10.3752 2.52936 10.5875C2.61733 10.7999 2.74626 10.9928 2.90879 11.1553C3.24224 11.4735 3.68543 11.651 4.14633 11.651C4.60724 11.651 5.05043 11.4735 5.38387 11.1553L11.5369 4.97605C12.0724 4.42673 12.3699 3.68855 12.365 2.92142C12.3601 2.15429 12.0531 1.41998 11.5106 0.877564C10.9681 0.335148 10.2338 0.0283015 9.46664 0.0234948C8.69951 0.0186882 7.96137 0.316308 7.41212 0.851884L1.25854 7.03055C0.492729 7.79636 0.0625 8.83503 0.0625 9.91805C0.0625 11.0011 0.492729 12.0397 1.25854 12.8055C2.02435 13.5714 3.06302 14.0016 4.14604 14.0016C5.22906 14.0016 6.26773 13.5714 7.03354 12.8055L13.3872 6.42622C13.4417 6.37201 13.485 6.30756 13.5145 6.23659C13.544 6.16561 13.5592 6.0895 13.5592 6.01263C13.5592 5.93577 13.544 5.85966 13.5145 5.78868C13.485 5.7177 13.4417 5.65326 13.3872 5.59905Z" fill="white"/></svg>
