<svg width="24" height="24" viewBox="0 0 24 24" fill="none" xmlns="http://www.w3.org/2000/svg">
<g clip-path="url(#clip0_646_5855)">
<path d="M13.4996 6.49931C13.4996 6.89714 13.3415 7.27867 13.0602 7.55997C12.7789 7.84128 12.3974 7.99931 11.9996 7.99931C11.6017 7.99931 11.2202 7.84128 10.9389 7.55997C10.6576 7.27867 10.4996 6.89714 10.4996 6.49931C10.4996 6.10149 10.6576 5.71995 10.9389 5.43865C11.2202 5.15735 11.6017 4.99931 11.9996 4.99931C12.3974 4.99931 12.7789 5.15735 13.0602 5.43865C13.3415 5.71995 13.4996 6.10149 13.4996 6.49931ZM23.9996 18.9993V12.3393C24.0369 9.25676 22.9067 6.2742 20.8359 3.99048C18.7651 1.70676 15.9071 0.290948 12.8356 0.0273102C11.1212 -0.0926321 9.4011 0.15705 7.7916 0.759463C6.1821 1.36188 4.72077 2.30297 3.50648 3.51906C2.29219 4.73515 1.35327 6.19788 0.75324 7.80827C0.153213 9.41866 -0.0939187 11.1391 0.028565 12.8533C0.470565 19.2073 6.08157 23.9993 13.0826 23.9993H18.9996C20.3252 23.9977 21.596 23.4704 22.5333 22.5331C23.4707 21.5958 23.998 20.3249 23.9996 18.9993ZM12.6996 2.02331C15.266 2.25035 17.6515 3.44022 19.3767 5.35386C21.1018 7.26751 22.0389 9.76313 21.9996 12.3393V18.9993C21.9996 19.795 21.6835 20.558 21.1209 21.1206C20.5583 21.6832 19.7952 21.9993 18.9996 21.9993H13.0826C7.04857 21.9993 2.39957 18.0993 2.02457 12.7153C1.92612 11.3439 2.11154 9.96691 2.56925 8.67038C3.02696 7.37385 3.74712 6.18564 4.68474 5.17998C5.62236 4.17432 6.75729 3.37282 8.01863 2.82556C9.27997 2.27829 10.6406 1.99702 12.0156 1.99931C12.2426 1.99931 12.4716 2.00831 12.6996 2.02331ZM13.9996 17.9993V11.9993C13.9996 11.4689 13.7889 10.9602 13.4138 10.5851C13.0387 10.21 12.53 9.99931 11.9996 9.99931H10.9996C10.7344 9.99931 10.48 10.1047 10.2925 10.2922C10.1049 10.4797 9.99957 10.7341 9.99957 10.9993C9.99957 11.2645 10.1049 11.5189 10.2925 11.7064C10.48 11.894 10.7344 11.9993 10.9996 11.9993H11.9996V17.9993C11.9996 18.2645 12.1049 18.5189 12.2925 18.7064C12.48 18.894 12.7344 18.9993 12.9996 18.9993C13.2648 18.9993 13.5191 18.894 13.7067 18.7064C13.8942 18.5189 13.9996 18.2645 13.9996 17.9993Z" fill="white"/>
</g>
<defs>
<clipPath id="clip0_646_5855">
<rect width="24" height="24" fill="white"/>
</clipPath>
</defs>
</svg>
