<svg width="18" height="18" viewBox="0 0 18 18" fill="none" xmlns="http://www.w3.org/2000/svg">
<g clip-path="url(#clip0_626_6794)">
<path d="M10.449 3C11.0591 3.0006 11.644 3.24321 12.0754 3.67461C12.5068 4.106 12.7494 4.69092 12.75 5.301C12.75 5.49991 12.829 5.69068 12.9697 5.83133C13.1103 5.97198 13.3011 6.051 13.5 6.051C13.6989 6.051 13.8897 5.97198 14.0303 5.83133C14.171 5.69068 14.25 5.49991 14.25 5.301V5.25C14.25 5.23575 14.25 5.223 14.25 5.20875C14.225 4.21705 13.8136 3.27434 13.1036 2.58154C12.3935 1.88875 11.441 1.50066 10.449 1.5H9.75V0.75C9.75 0.551088 9.67098 0.360322 9.53033 0.21967C9.38968 0.0790176 9.19891 0 9 0C8.80109 0 8.61032 0.0790176 8.46967 0.21967C8.32902 0.360322 8.25 0.551088 8.25 0.75V1.5H7.551C6.64899 1.50096 5.77672 1.82268 5.0901 2.40763C4.40347 2.99259 3.94726 3.80267 3.80299 4.69307C3.65872 5.58347 3.83581 6.49615 4.30259 7.26799C4.76938 8.03983 5.49544 8.62052 6.351 8.90625L8.25 9.54V15H7.551C6.94092 14.9994 6.356 14.7568 5.92461 14.3254C5.49321 13.894 5.2506 13.3091 5.25 12.699C5.25 12.5001 5.17098 12.3093 5.03033 12.1687C4.88968 12.028 4.69891 11.949 4.5 11.949C4.30109 11.949 4.11032 12.028 3.96967 12.1687C3.82902 12.3093 3.75 12.5001 3.75 12.699V12.75C3.75 12.7642 3.75 12.777 3.75 12.7913C3.77503 13.783 4.1864 14.7257 4.89642 15.4185C5.60645 16.1113 6.55898 16.4993 7.551 16.5H8.25V17.25C8.25 17.4489 8.32902 17.6397 8.46967 17.7803C8.61032 17.921 8.80109 18 9 18C9.19891 18 9.38968 17.921 9.53033 17.7803C9.67098 17.6397 9.75 17.4489 9.75 17.25V16.5H10.449C11.351 16.499 12.2233 16.1773 12.9099 15.5924C13.5965 15.0074 14.0527 14.1973 14.197 13.3069C14.3413 12.4165 14.1642 11.5038 13.6974 10.732C13.2306 9.96017 12.5046 9.37948 11.649 9.09375L9.75 8.46V3H10.449ZM11.1765 10.5157C11.6951 10.6883 12.1353 11.0399 12.4183 11.5074C12.7013 11.975 12.8087 12.528 12.7212 13.0675C12.6336 13.607 12.3569 14.0977 11.9406 14.4518C11.5243 14.8059 10.9955 15.0002 10.449 15H9.75V10.0402L11.1765 10.5157ZM8.25 7.95975L6.825 7.48425C6.30655 7.3117 5.86643 6.96028 5.5834 6.49289C5.30037 6.0255 5.1929 5.47264 5.28023 4.93326C5.36755 4.39387 5.64397 3.90317 6.06002 3.54896C6.47607 3.19475 7.00459 3.00015 7.551 3H8.25V7.95975Z" fill="#F1F1F1"/>
</g>
<defs>
<clipPath id="clip0_626_6794">
<rect width="18" height="18" fill="white"/>
</clipPath>
</defs>
</svg>
