<svg width="14" height="14" viewBox="0 0 14 14" fill="none" xmlns="http://www.w3.org/2000/svg">
<g clip-path="url(#clip0_184_483)">
<path d="M6.99967 11.6667C8.23693 11.6653 9.4231 11.1732 10.298 10.2983C11.1728 9.42343 11.665 8.23725 11.6663 7V4.66667C11.6663 3.42899 11.1747 2.242 10.2995 1.36684C9.42434 0.491665 8.23735 0 6.99967 0C5.762 0 4.57501 0.491665 3.69984 1.36684C2.82467 2.242 2.33301 3.42899 2.33301 4.66667V7C2.3344 8.23725 2.82651 9.42343 3.70138 10.2983C4.57625 11.1732 5.76242 11.6653 6.99967 11.6667ZM6.99967 1.16667C7.826 1.1682 8.62518 1.46176 9.25603 1.99547C9.88687 2.52917 10.3088 3.26868 10.4472 4.08333H8.74967C8.59497 4.08333 8.44659 4.14479 8.3372 4.25419C8.2278 4.36358 8.16634 4.51196 8.16634 4.66667C8.16634 4.82138 8.2278 4.96975 8.3372 5.07915C8.44659 5.18854 8.59497 5.25 8.74967 5.25H10.4997V6.41667H8.74967C8.59497 6.41667 8.44659 6.47813 8.3372 6.58752C8.2278 6.69692 8.16634 6.84529 8.16634 7C8.16634 7.15471 8.2278 7.30308 8.3372 7.41248C8.44659 7.52188 8.59497 7.58333 8.74967 7.58333H10.4472C10.3101 8.39854 9.88853 9.13878 9.25738 9.67265C8.62624 10.2065 7.82633 10.4994 6.99967 10.4994C6.17302 10.4994 5.37311 10.2065 4.74197 9.67265C4.11082 9.13878 3.68928 8.39854 3.55217 7.58333H5.24967C5.40438 7.58333 5.55276 7.52188 5.66215 7.41248C5.77155 7.30308 5.83301 7.15471 5.83301 7C5.83301 6.84529 5.77155 6.69692 5.66215 6.58752C5.55276 6.47813 5.40438 6.41667 5.24967 6.41667H3.49967V5.25H5.24967C5.40438 5.25 5.55276 5.18854 5.66215 5.07915C5.77155 4.96975 5.83301 4.82138 5.83301 4.66667C5.83301 4.51196 5.77155 4.36358 5.66215 4.25419C5.55276 4.14479 5.40438 4.08333 5.24967 4.08333H3.55217C3.69058 3.26868 4.11248 2.52917 4.74332 1.99547C5.37417 1.46176 6.17335 1.1682 6.99967 1.16667Z" fill="white"/>
<path d="M13.4167 7C13.262 7 13.1136 7.06146 13.0042 7.17085C12.8948 7.28025 12.8333 7.42862 12.8333 7.58333C12.8318 8.97525 12.2782 10.3097 11.2939 11.2939C10.3097 12.2782 8.97525 12.8318 7.58333 12.8333H6.41667C5.0248 12.8316 3.69043 12.278 2.70623 11.2938C1.72203 10.3096 1.16836 8.9752 1.16667 7.58333C1.16667 7.42862 1.10521 7.28025 0.995812 7.17085C0.886416 7.06146 0.738043 7 0.583333 7C0.428624 7 0.280251 7.06146 0.170854 7.17085C0.0614582 7.28025 0 7.42862 0 7.58333C0.00200694 9.28452 0.678691 10.9155 1.88161 12.1184C3.08454 13.3213 4.71548 13.998 6.41667 14H7.58333C9.28452 13.998 10.9155 13.3213 12.1184 12.1184C13.3213 10.9155 13.998 9.28452 14 7.58333C14 7.42862 13.9385 7.28025 13.8291 7.17085C13.7197 7.06146 13.5714 7 13.4167 7Z" fill="white"/>
</g>
<defs>
<clipPath id="clip0_184_483">
<rect width="14" height="14" fill="white"/>
</clipPath>
</defs>
</svg>
