<svg width="9" height="18" viewBox="0 0 9 18" fill="none" xmlns="http://www.w3.org/2000/svg">
<path d="M7.6084 6.43864L2.06215 0.89239C1.83575 0.667337 1.5295 0.541016 1.21027 0.541016C0.89105 0.541016 0.584796 0.667337 0.3584 0.89239C0.245144 1.00472 0.155252 1.13836 0.0939061 1.28561C0.0325606 1.43286 0.000976562 1.59079 0.000976562 1.75031C0.000976562 1.90982 0.0325606 2.06776 0.0939061 2.215C0.155252 2.36225 0.245144 2.49589 0.3584 2.60822L5.91673 8.14239C6.02999 8.25472 6.11988 8.38836 6.18123 8.53561C6.24257 8.68286 6.27416 8.84079 6.27416 9.00031C6.27416 9.15982 6.24257 9.31776 6.18123 9.465C6.11988 9.61225 6.02999 9.74589 5.91673 9.85822L0.3584 15.3924C0.130866 15.6183 0.00240229 15.9254 0.00126926 16.246C0.000136229 16.5667 0.126428 16.8746 0.352359 17.1022C0.57829 17.3297 0.885355 17.4582 1.206 17.4593C1.52665 17.4604 1.83462 17.3342 2.06215 17.1082L7.6084 11.562C8.28724 10.8823 8.66855 9.96093 8.66855 9.00031C8.66855 8.03968 8.28724 7.11833 7.6084 6.43864Z" fill="#838383"/>
</svg>
