<svg width="16" height="16" viewBox="0 0 16 16" fill="none" xmlns="http://www.w3.org/2000/svg">
<g clip-path="url(#clip0_543_15649)">
<path d="M0.5 7.99914C0.5 8.91654 0.665029 9.79533 0.966494 10.6078L8 11.26L15.0335 10.6078C15.335 9.79533 15.5 8.91654 15.5 7.99914C15.5 7.08174 15.335 6.20295 15.0335 5.39046L8 4.73828L0.966494 5.39046C0.665029 6.20295 0.5 7.08174 0.5 7.99914V7.99914Z" fill="#FFDA44"/>
<path d="M15.0338 5.39132C13.9741 2.53534 11.225 0.5 8.0003 0.5C4.77557 0.5 2.02649 2.53534 0.966797 5.39132H15.0338Z" fill="#D80027"/>
<path d="M0.966797 10.6094C2.02649 13.4654 4.77557 15.5007 8.0003 15.5007C11.225 15.5007 13.9741 13.4654 15.0338 10.6094H0.966797Z" fill="#D80027"/>
</g>
<defs>
<clipPath id="clip0_543_15649">
<rect width="15" height="15" fill="white" transform="translate(0.5 0.5)"/>
</clipPath>
</defs>
</svg>
