<svg width="16" height="16" viewBox="0 0 16 16" fill="none" xmlns="http://www.w3.org/2000/svg">
<g style="mix-blend-mode:luminosity" clip-path="url(#clip0_543_15656)">
<path d="M8 15.5C12.1421 15.5 15.5 12.1421 15.5 8C15.5 3.85786 12.1421 0.5 8 0.5C3.85786 0.5 0.5 3.85786 0.5 8C0.5 12.1421 3.85786 15.5 8 15.5Z" fill="#F0F0F0"/>
<path d="M2.05081 3.43359C1.46168 4.20009 1.01745 5.08354 0.758789 6.04327H4.66049L2.05081 3.43359Z" fill="#0052B4"/>
<path d="M15.2425 6.04324C14.9838 5.08353 14.5395 4.20009 13.9504 3.43359L11.3408 6.04324H15.2425Z" fill="#0052B4"/>
<path d="M0.758789 9.95508C1.01748 10.9148 1.46171 11.7982 2.05081 12.5647L4.6604 9.95508H0.758789Z" fill="#0052B4"/>
<path d="M12.5667 2.04986C11.8002 1.46073 10.9168 1.0165 9.95703 0.757812V4.65948L12.5667 2.04986Z" fill="#0052B4"/>
<path d="M3.43457 13.9494C4.20106 14.5386 5.08451 14.9828 6.04422 15.2415V11.3398L3.43457 13.9494Z" fill="#0052B4"/>
<path d="M6.04419 0.757812C5.08448 1.0165 4.20104 1.46073 3.43457 2.04983L6.04419 4.65945V0.757812Z" fill="#0052B4"/>
<path d="M9.95703 15.2415C10.9167 14.9828 11.8002 14.5386 12.5667 13.9495L9.95703 11.3398V15.2415Z" fill="#0052B4"/>
<path d="M11.3408 9.95508L13.9504 12.5647C14.5395 11.7983 14.9838 10.9148 15.2425 9.95508H11.3408Z" fill="#0052B4"/>
<path d="M15.4365 7.02175H8.97831H8.97828V0.563486C8.65804 0.521797 8.33155 0.5 8 0.5C7.66839 0.5 7.34196 0.521797 7.02175 0.563486V7.02169V7.02172H0.563486C0.521797 7.34196 0.5 7.66845 0.5 8C0.5 8.33161 0.521797 8.65804 0.563486 8.97825H7.02169H7.02172V15.4365C7.34196 15.4782 7.66839 15.5 8 15.5C8.33155 15.5 8.65804 15.4782 8.97825 15.4365V8.97831V8.97828H15.4365C15.4782 8.65804 15.5 8.33161 15.5 8C15.5 7.66845 15.4782 7.34196 15.4365 7.02175Z" fill="#D80027"/>
<path d="M9.95605 9.95706L13.3028 13.3038C13.4567 13.15 13.6036 12.9891 13.7437 12.8223L10.8784 9.95703H9.95605V9.95706Z" fill="#D80027"/>
<path d="M6.04308 9.95703H6.04302L2.69629 13.3038C2.85016 13.4577 3.01103 13.6045 3.17778 13.7446L6.04308 10.8793V9.95703Z" fill="#D80027"/>
<path d="M6.04348 6.04411V6.04405L2.69672 2.69727C2.54279 2.85113 2.39596 3.012 2.25586 3.17876L5.12118 6.04408H6.04348V6.04411Z" fill="#D80027"/>
<path d="M9.95605 6.04351L13.3028 2.69669C13.149 2.54276 12.9881 2.39593 12.8213 2.25586L9.95605 5.12118V6.04351Z" fill="#D80027"/>
</g>
<defs>
<clipPath id="clip0_543_15656">
<rect width="15" height="15" fill="white" transform="translate(0.5 0.5)"/>
</clipPath>
</defs>
</svg>
