<svg width="31" height="24" viewBox="0 0 31 24" fill="none" xmlns="http://www.w3.org/2000/svg">
<path d="M25.13 6.3296C24.2134 4.22361 22.6317 2.47621 20.6271 1.35519C18.6224 0.234164 16.3055 -0.198653 14.0314 0.123062C11.7573 0.444778 9.65135 1.50328 8.03634 3.13636C6.42133 4.76944 5.38634 6.88702 5.08996 9.1646C3.65984 9.50708 2.40529 10.3628 1.56456 11.5694C0.723838 12.7759 0.355484 14.2492 0.529453 15.7094C0.703422 17.1697 1.4076 18.5152 2.50826 19.4904C3.60892 20.4656 5.0294 21.0027 6.49996 20.9996C6.89778 20.9996 7.27931 20.8416 7.56062 20.5603C7.84192 20.279 7.99996 19.8974 7.99996 19.4996C7.99996 19.1018 7.84192 18.7202 7.56062 18.4389C7.27931 18.1576 6.89778 17.9996 6.49996 17.9996C5.70431 17.9996 4.94125 17.6835 4.37864 17.1209C3.81603 16.5583 3.49996 15.7952 3.49996 14.9996C3.49996 14.2039 3.81603 13.4409 4.37864 12.8783C4.94125 12.3157 5.70431 11.9996 6.49996 11.9996C6.89778 11.9996 7.27931 11.8416 7.56062 11.5603C7.84192 11.279 7.99996 10.8974 7.99996 10.4996C8.00379 8.72552 8.63639 7.01023 9.78536 5.65847C10.9343 4.30672 12.5253 3.40603 14.2756 3.11641C16.0259 2.82679 17.8222 3.16701 19.3453 4.07661C20.8685 4.98622 22.0199 6.40631 22.595 8.0846C22.6807 8.34236 22.8348 8.572 23.0409 8.749C23.247 8.926 23.4972 9.04372 23.765 9.0896C24.7641 9.27841 25.6698 9.8 26.3345 10.5694C26.9992 11.3388 27.3838 12.3106 27.4256 13.3266C27.4673 14.3425 27.1638 15.3426 26.5644 16.1639C25.965 16.9853 25.1052 17.5795 24.125 17.8496C23.7391 17.9491 23.4085 18.1977 23.206 18.5409C23.0034 18.8841 22.9455 19.2937 23.045 19.6796C23.1444 20.0655 23.3931 20.3961 23.7363 20.5986C24.0795 20.8011 24.4891 20.8591 24.875 20.7596C26.4535 20.3425 27.8529 19.4216 28.8605 18.1368C29.8681 16.852 30.4289 15.2735 30.4577 13.641C30.4866 12.0085 29.9819 10.4112 29.0203 9.09158C28.0587 7.772 26.6928 6.80225 25.13 6.3296ZM16.565 9.4346C16.4223 9.29804 16.2541 9.19099 16.07 9.1196C15.7048 8.96957 15.2951 8.96957 14.93 9.1196C14.7458 9.19099 14.5776 9.29804 14.435 9.4346L9.93496 13.9346C9.6525 14.2171 9.49382 14.6001 9.49382 14.9996C9.49382 15.3991 9.6525 15.7821 9.93496 16.0646C10.2174 16.3471 10.6005 16.5057 11 16.5057C11.3994 16.5057 11.7825 16.3471 12.065 16.0646L14 14.1146V22.4996C14 22.8974 14.158 23.279 14.4393 23.5603C14.7206 23.8416 15.1021 23.9996 15.5 23.9996C15.8978 23.9996 16.2793 23.8416 16.5606 23.5603C16.8419 23.279 17 22.8974 17 22.4996V14.1146L18.935 16.0646C19.0744 16.2052 19.2403 16.3168 19.4231 16.3929C19.6059 16.4691 19.8019 16.5083 20 16.5083C20.198 16.5083 20.394 16.4691 20.5768 16.3929C20.7596 16.3168 20.9255 16.2052 21.065 16.0646C21.2056 15.9252 21.3171 15.7593 21.3933 15.5765C21.4694 15.3937 21.5087 15.1976 21.5087 14.9996C21.5087 14.8016 21.4694 14.6055 21.3933 14.4227C21.3171 14.2399 21.2056 14.074 21.065 13.9346L16.565 9.4346Z" fill="#F1F1F1"/>
</svg>
