<svg width="25" height="20" viewBox="0 0 25 20" fill="none" xmlns="http://www.w3.org/2000/svg">
<path d="M20.5258 5.27597C19.762 3.52097 18.4439 2.06481 16.7734 1.13063C15.1028 0.196439 13.1721 -0.164242 11.277 0.103854C9.38187 0.37195 7.62694 1.25403 6.2811 2.61494C4.93526 3.97584 4.07276 5.74049 3.82578 7.63847C2.63401 7.92387 1.58856 8.63701 0.88795 9.64245C0.187346 10.6479 -0.119617 11.8756 0.025358 13.0925C0.170332 14.3093 0.757147 15.4306 1.67436 16.2433C2.59158 17.056 3.77532 17.5035 5.00078 17.501C5.3323 17.501 5.65024 17.3693 5.88466 17.1349C6.11908 16.9004 6.25078 16.5825 6.25078 16.251C6.25078 15.9194 6.11908 15.6015 5.88466 15.3671C5.65024 15.1327 5.3323 15.001 5.00078 15.001C4.33774 15.001 3.70185 14.7376 3.23301 14.2687C2.76417 13.7999 2.50078 13.164 2.50078 12.501C2.50078 11.8379 2.76417 11.202 3.23301 10.7332C3.70185 10.2644 4.33774 10.001 5.00078 10.001C5.3323 10.001 5.65024 9.86927 5.88466 9.63485C6.11908 9.40043 6.25078 9.08249 6.25078 8.75097C6.25397 7.27256 6.78114 5.84316 7.73862 4.7167C8.69609 3.59023 10.0219 2.83966 11.4805 2.59831C12.939 2.35696 14.4359 2.64048 15.7052 3.39848C16.9745 4.15648 17.934 5.33989 18.4133 6.73847C18.4847 6.95327 18.6132 7.14463 18.7849 7.29213C18.9566 7.43964 19.1652 7.53774 19.3883 7.57597C20.2209 7.73331 20.9756 8.16797 21.5296 8.80914C22.0835 9.4503 22.404 10.2602 22.4388 11.1068C22.4736 11.9534 22.2206 12.7868 21.7212 13.4713C21.2217 14.1557 20.5051 14.6508 19.6883 14.876C19.3667 14.9588 19.0912 15.1661 18.9224 15.4521C18.7537 15.7381 18.7054 16.0794 18.7883 16.401C18.8712 16.7225 19.0784 16.998 19.3644 17.1668C19.6504 17.3356 19.9917 17.3838 20.3133 17.301C21.6288 16.9534 22.7949 16.186 23.6345 15.1153C24.4742 14.0446 24.9415 12.7292 24.9656 11.3688C24.9896 10.0084 24.569 8.67727 23.7677 7.57762C22.9664 6.47796 21.8282 5.66984 20.5258 5.27597ZM15.8883 12.8635C15.7721 12.7463 15.6338 12.6533 15.4815 12.5899C15.3292 12.5264 15.1658 12.4937 15.0008 12.4937C14.8358 12.4937 14.6724 12.5264 14.5201 12.5899C14.3677 12.6533 14.2295 12.7463 14.1133 12.8635L12.5008 14.4885L10.8883 12.8635C10.6529 12.6281 10.3337 12.4959 10.0008 12.4959C9.6679 12.4959 9.34866 12.6281 9.11328 12.8635C8.8779 13.0988 8.74566 13.4181 8.74566 13.751C8.74566 14.0838 8.8779 14.4031 9.11328 14.6385L10.7383 16.251L9.11328 17.8635C8.99612 17.9797 8.90313 18.1179 8.83966 18.2702C8.7762 18.4226 8.74353 18.586 8.74353 18.751C8.74353 18.916 8.7762 19.0794 8.83966 19.2317C8.90313 19.384 8.99612 19.5223 9.11328 19.6385C9.22948 19.7556 9.36773 19.8486 9.52006 19.9121C9.67238 19.9755 9.83576 20.0082 10.0008 20.0082C10.1658 20.0082 10.3292 19.9755 10.4815 19.9121C10.6338 19.8486 10.7721 19.7556 10.8883 19.6385L12.5008 18.0135L14.1133 19.6385C14.2295 19.7556 14.3677 19.8486 14.5201 19.9121C14.6724 19.9755 14.8358 20.0082 15.0008 20.0082C15.1658 20.0082 15.3292 19.9755 15.4815 19.9121C15.6338 19.8486 15.7721 19.7556 15.8883 19.6385C16.0054 19.5223 16.0984 19.384 16.1619 19.2317C16.2254 19.0794 16.258 18.916 16.258 18.751C16.258 18.586 16.2254 18.4226 16.1619 18.2702C16.0984 18.1179 16.0054 17.9797 15.8883 17.8635L14.2633 16.251L15.8883 14.6385C16.0054 14.5223 16.0984 14.384 16.1619 14.2317C16.2254 14.0794 16.258 13.916 16.258 13.751C16.258 13.586 16.2254 13.4226 16.1619 13.2702C16.0984 13.1179 16.0054 12.9797 15.8883 12.8635Z" fill="#909090"/>
</svg>
